# xmcd CD database file
#
# Track frame offsets:
#	150
#	28824
#	49725
#	76447
#	98087
#	119900
#	147678
#	169468
#	192705
#	211593
#	231147
#	258621
#	283639
#	303906
#	322981
#
# Disc length: 4655 seconds
#
# Revision: 0
# Processed by: cddbd v1.5.2PL0 Copyright (c) Steve Scherf et al.
# Submitted via: CD2WAV32(JP) R3.22
#
DISCID=e5122d0f
DTITLE=Akira Wada - Ballads Best
DYEAR=2009
DGENRE=Fusion
TTITLE0=Love Me
TTITLE1=Dedicated To You
TTITLE2=You Are Too Beautiful
TTITLE3=I Wish I Knew
TTITLE4=Superstar
TTITLE5=Imagine
TTITLE6=Lovin' You
TTITLE7=Midnight Walk
TTITLE8=You Are Everything
TTITLE9=All Or Nothing At All
TTITLE10=My One And Only Love
TTITLE11=Third World Man
TTITLE12=Nancy
TTITLE13=My Love
TTITLE14=It's Easy To Remember
EXTD=
EXTT0=
EXTT1=
EXTT2=
EXTT3=
EXTT4=
EXTT5=
EXTT6=
EXTT7=
EXTT8=
EXTT9=
EXTT10=
EXTT11=
EXTT12=
EXTT13=
EXTT14=
PLAYORDER=
